#!OML:ASF E:/inclinewalkrobotboard/Project1/Captureday1/Session1/subject1.ASF
:FULLY-SPECIFIED
:DEGREES
38
root 0 0 0 1.539908103064724 -3.868186865684269 1.8519872976731655
lowerback 12.239335485971562 0.9608113222327286 0.025078140942048077
upperback -4.446814533068997 1.2164018004964927 -0.6309837606600012
thorax -11.735631780717021 0.5626479085999675 -0.9370857644102848
lowerneck -6.067514839415252 1.8661279968065745 4.773976787712353
upperneck 18.110408797865347 3.4990130981905425 -8.585462738618181
head 6.648347328896671 1.3077506769492464 -3.279970160047622
rclavicle 2.1607835731424816E-15 -7.083388224237455E-16
rhumerus 21.08807961957053 15.627197638160736 -47.80759758813581
rradius 73.27630619814866
rwrist 26.69402224353781
rhand -34.61510704499209 -57.1807754919383
rfingers 7.1250200000000286
rthumb -7.717442183629386 -87.14190592152141
lclavicle -7.401146782153273E-16 -7.490999440011961E-16
lhumerus 23.169092131548105 -14.452623409584609 44.745011068378844
lradius 71.82706750708314
lwrist -22.25426398987173
lhand -45.75344366959807 -71.95526150831148
lfingers 7.1250200000000286
lthumb -18.507518394857264 -42.73863934704657
rfemur -24.971454047965075 -1.9526311847765179 17.776055086694996
rtibia 50.66526572980659
rfoot -34.25846113728623 -18.286678135927662
rtoes -21.87529022807511
lfemur -28.081696964586932 2.1426746911911043 -17.152997668954377
ltibia 50.86302532046461
lfoot -35.54491357439929 -0.27837112330731095
ltoes -22.096392544240217
39
root 0 0 0 1.5398471671021547 -3.8679829666969185 1.8519546440736563
lowerback 12.23941519302341 0.9607099277735835 0.025085604248151927
upperback -4.4468213504221605 1.2162771009205644 -0.6309325404125569
thorax -11.735691450798242 0.5625855868197039 -0.9370257142610625
lowerneck -6.06742621768393 1.8661539565072054 4.774015041743516
upperneck 18.110260367675235 3.499059704246431 -8.585519550021932
head 6.64828362725231 1.3077709839672749 -3.279989660463814
rclavicle 2.1592807088127124E-15 -7.096226562219095E-16
rhumerus 21.08767059265046 15.626499143109497 -47.80695579088726
rradius 73.2759862357439
rwrist 26.694724703228644
rhand -34.61515035383907 -57.1811866618066
rfingers 7.1250200000000286
rthumb -7.71747722458333 -87.14229412584362
lclavicle -7.410979041235952E-16 -7.502747357662218E-16
lhumerus 23.169336077496197 -14.452865199117591 44.74501368851123
lradius 71.82727401499417
lwrist -22.254183535753654
lhand -45.75351310157108 -71.95540224604127
lfingers 7.1250200000000286
lthumb -18.507579784737896 -42.73874529176432
rfemur -24.971604516951817 -1.952083168626869 17.776624464184586
rtibia 50.66200258834937
rfoot -34.25982684535445 -18.286837173260643
rtoes -21.875888315243287
lfemur -28.080826031276935 2.1429193134060402 -17.152742097580827
ltibia 50.86563496493286
lfoot -35.54258666403919 -0.2802963758626813
ltoes -22.097343108693828
40
root 0 0 0 1.5398170935256852 -3.8679119899060552 1.8519235756728691
lowerback 12.239449887433876 0.960676403526231 0.025111992494494195
upperback -4.446826133627605 1.2162389474787854 -0.6309105918249024
thorax -11.735718165984217 0.5625658137980045 -0.937014319819903
lowerneck -6.067390803131051 1.8661658112295798 4.774032750210703
upperneck 18.110222092670313 3.499079767046384 -8.58554659187646
head 6.648264722485111 1.30777949006128 -3.2799991362083594
rclavicle 2.1588933675404793E-15 -7.098856802795732E-16
rhumerus 21.08746622312333 15.626183094445034 -47.80671282200015
rradius 73.27581761725484
rwrist 26.694983961851058
rhand -34.61515827532102 -57.18128387196189
rfingers 7.1250200000000286
rthumb -7.717484751827078 -87.14238293883776
lclavicle -7.414011049326415E-16 -7.50553742835097E-16
lhumerus 23.169411788522964 -14.452927990658145 44.744999131188905
lradius 71.82734436992354
lwrist -22.254179492727154
lhand -45.75354405746972 -71.95548589989379
lfingers 7.1250200000000286
lthumb -18.507609244967913 -42.73882422951955
rfemur -24.9714977886549 -1.9519243438329292 17.776838922597666
rtibia 50.66115329283358
rfoot -34.260134628041016 -18.28677599240133
rtoes -21.87592191809848
lfemur -28.080372460575106 2.14314124778942 -17.152425489756595
ltibia 50.86794078993649
lfoot -35.54015013873672 -0.28191478960825256
ltoes -22.097682442840945
41
root 0 0 0 1.5400664626227711 -3.8697283000080382 1.851834581570809
lowerback 12.238424792398018 0.961795483859007 0.02533274468439961
upperback -4.446756792902763 1.217644949978972 -0.6313379961254303
thorax -11.734975760090242 0.5632629376377923 -0.9377016014538515
lowerneck -6.068057723055283 1.8658596251586792 4.773690262194225
upperneck 18.111667291898748 3.498495671421609 -8.58492399763714
head 6.648826220098611 1.3075244745920167 -3.279793237516995
rclavicle 2.1627063589677265E-15 -7.092977972674808E-16
rhumerus 21.086251459656346 15.626002436070712 -47.80806498061244
rradius 73.27544660160348
rwrist 26.69403158478324
rhand -34.614676058148774 -57.177888601879296
rfingers 7.1250200000000286
rthumb -7.716598670278964 -87.13957929049822
lclavicle -7.390140472224584E-16 -7.330395919713889E-16
lhumerus 23.16447352749274 -14.447926719902382 44.74466309309753
lradius 71.82348109659348
lwrist -22.25593360080817
lhand -45.75180986140784 -71.95399934341646
lfingers 7.1250200000000286
lthumb -18.50580528549045 -42.73741600585129
rfemur -24.971866281583427 -1.9509412759748654 17.775001410970198
rtibia 50.66365301760281
rfoot -34.253715961436754 -18.290380688473004
rtoes -21.86428819617824
lfemur -28.07972359053504 2.145694579880128 -17.150621664908744
ltibia 50.87366564301588
lfoot -35.521072618700934 -0.28588006506601404
ltoes -22.08831326254834
42
root 0 0 0 1.5399589113561345 -3.868591477190532 1.8517922961593882
lowerback 12.239244443899699 0.9610106460719289 0.02529752709773686
upperback -4.4467959741630265 1.2166787103205579 -0.6310005771850823
thorax -11.73554028099801 0.5627800004769847 -0.9372509060315817
lowerneck -6.067653779662873 1.866118002604401 4.773946672552336
upperneck 18.110762663666367 3.498984227368288 -8.585459034418172
head 6.64848251360445 1.307730754251033 -3.279968721363373
rclavicle 2.1623408675535607E-15 -7.083357262842722E-16
rhumerus 21.087451792063817 15.626418308738904 -47.80717435868397
rradius 73.27576573895348
rwrist 26.694558780352434
rhand -34.6150354607038 -57.18089325940826
rfingers 7.1250200000000286
rthumb -7.717358962472455 -87.14186694969777
lclavicle -7.385484634794464E-16 -7.485863571032837E-16
lhumerus 23.1685719399836 -14.451717387970048 44.744849587414734
lradius 71.82632165921648
lwrist -22.254721054523714
lhand -45.75326423705584 -71.95544419254196
lfingers 7.1250200000000286
lthumb -18.50734166910303 -42.73884217426824
rfemur -24.9711299094727 -1.9534736071426382 17.775330525170613
rtibia 50.67102175901421
rfoot -34.25537817568837 -18.286506905346407
rtoes -21.872580428314127
lfemur -28.083385881935655 2.143160094869215 -17.15220404011151
ltibia 50.868470256249154
lfoot -35.540318059499754 -0.2807848215077322
ltoes -22.09493841104262
43
root 0 0 0 1.539864638640029 -3.868195801058863 1.851957680982923
lowerback 12.239361462371978 0.960816216318723 0.02512391733294006
upperback -4.44682130707086 1.2164131347683522 -0.6309803532434729
thorax -11.735655326086853 0.562652652839776 -0.9371080048415246
lowerneck -6.067492253661376 1.866137910359284 4.773995020120075
upperneck 18.11044651869472 3.499028385686003 -8.58549732562522
head 6.648354855260924 1.3077560572545508 -3.279983091913248
rclavicle 2.1603885432041896E-15 -7.087823669105451E-16
rhumerus 21.08777523861832 15.626758891530796 -47.80727613891051
rradius 73.27605756348581
rwrist 26.694363420708086
rhand -34.61510918904695 -57.18087628479121
rfingers 7.1250200000000286
rthumb -7.717442977956184 -87.14199354724764
lclavicle -7.403737180572252E-16 -7.493567592158373E-16
lhumerus 23.168920664439526 -14.45231625819838 44.74492783870038
lradius 71.8268640356309
lwrist -22.25444122610088
lhand -45.75342717622093 -71.9554686299642
lfingers 7.1250200000000286
lthumb -18.507499757982707 -42.73885280710097
rfemur -24.971295534120433 -1.95329935523152 17.775268229430235
rtibia 50.66943746262706
rfoot -34.25569953401134 -18.28607913528958
rtoes -21.87451196947707
lfemur -28.081694692040422 2.1432938729578463 -17.152925124259475
ltibia 50.86754995890672
lfoot -35.54117439971274 -0.28075222568748925
ltoes -22.095243200908676
